<svg width="90" height="20" viewBox="0 0 90 20" fill="none" xmlns="http://www.w3.org/2000/svg">
<path d="M36.2422 13.6606C36.2422 14.9993 36.4485 16.035 36.8604 16.7671C37.2728 17.4989 38.1007 17.8647 39.3457 17.8647C40.5911 17.8647 41.4837 17.458 42.1338 16.644C42.7838 15.83 43.1094 14.6456 43.1094 13.0903V5.06201H45.6084V19.6548H43.1094V17.5669C42.1022 19.1942 40.5541 20.0083 38.4668 20.0083C35.3173 20.0081 33.7432 18.1359 33.7432 14.3931V5.06201H36.2422V13.6606ZM25.0742 4.81689C27.2897 4.81697 29.0289 5.61763 30.292 7.21826C31.5557 8.81842 32.1147 10.8035 31.9688 13.1724L20.5977 13.1714C20.6336 14.6542 21.1057 15.8027 22.0117 16.6167C22.9182 17.4305 23.9662 17.8374 25.1562 17.8374C27.1341 17.8374 28.4801 17.0327 29.1943 15.4233H31.7764C31.4281 16.7439 30.6674 17.8376 29.4961 18.7056C28.3237 19.5735 26.877 20.0073 25.1562 20.0073C22.8855 20.0073 21.1095 19.2933 19.8281 17.8647C18.5456 16.4366 17.9053 14.6089 17.9053 12.3853C17.9053 10.1617 18.5826 8.27549 19.9375 6.89209C21.2929 5.50872 23.0046 4.81689 25.0742 4.81689ZM71.2988 4.76025C73.3313 4.7603 74.823 5.24848 75.7754 6.2251C76.7273 7.20179 77.195 8.72123 77.1768 10.7827L77.1484 14.146C77.1302 16.5148 77.259 18.3508 77.5332 19.6528H75.0059C74.8964 18.9475 74.8317 18.2783 74.8135 17.645C73.8798 19.2184 72.1953 20.0054 69.7598 20.0054C68.3135 20.0052 67.1053 19.6299 66.1348 18.8794C65.1637 18.1294 64.6798 17.1031 64.6797 15.8013C64.6797 14.9698 64.9037 14.2544 65.3525 13.6577C65.8014 13.0612 66.4966 12.5684 67.4395 12.1792C68.3818 11.7906 69.4117 11.4883 70.5293 11.271C71.6459 11.0537 73.0289 10.855 74.6768 10.6743V10.3208C74.6766 7.95222 73.5593 6.76807 71.3262 6.76807C70.3004 6.76807 69.4951 7.02095 68.9092 7.52686C68.3233 8.03287 68.0026 8.74755 67.9473 9.66943H65.3662C65.4758 8.16901 66.1122 6.97585 67.2744 6.08936C68.4369 5.20329 69.7792 4.76025 71.2988 4.76025ZM63.832 4.98486C64.1244 4.98486 64.3721 4.9942 64.5732 5.01221L64.5742 7.64404C64.116 7.57252 63.6488 7.53564 63.1729 7.53564C62.0011 7.53571 61.1311 7.88455 60.5635 8.58057C59.9959 9.27714 59.712 10.4206 59.7119 12.0112V19.6616H57.2129V5.06689H59.6572V7.6167C60.4079 5.95335 61.7995 5.07604 63.832 4.98486ZM13.2109 16.728V-0.00830078H16.0127V19.6587H11.9209L2.80176 2.86768V19.6587H0V-0.00830078H4.12012L13.2109 16.728ZM82.123 -0.00830078V19.6587H79.624V-0.00830078H82.123ZM52.4268 5.06201H55.2285V7.0415H52.4268V15.6948C52.4268 16.4904 52.5135 17.0058 52.6875 17.2407C52.8611 17.476 53.2871 17.5942 53.9648 17.5942H55.2285V19.6548H53.416C51.9876 19.6548 51.0483 19.4203 50.6006 18.9497C50.1513 18.4795 49.9277 17.4937 49.9277 15.9927V7.0415H47.5928V5.06104H49.9268V1.3999H52.4268V5.06201ZM87.083 13.2729C87.8207 13.273 88.4469 13.4903 88.9619 13.9253L89.46 13.3403L89.8037 13.6372L89.2793 14.2476C89.7596 14.8073 90 15.5145 90 16.4526C89.9999 17.3905 89.7349 18.1561 89.2061 18.7495C88.6766 19.3431 87.9685 19.6401 87.082 19.6401C86.3157 19.6401 85.6861 19.4195 85.1943 18.979L84.6201 19.6489L84.2764 19.3433L84.8691 18.6567C84.4 18.0693 84.1651 17.3343 84.165 16.4526C84.165 15.5145 84.4295 14.7495 84.959 14.1587C85.4879 13.5679 86.196 13.2729 87.083 13.2729ZM86.0537 17.9878C86.3229 18.2488 86.6652 18.3813 87.083 18.3813C87.4868 18.3813 87.8284 18.2509 88.1074 17.9897L88.2227 17.8696C88.521 17.5284 88.6699 17.0563 88.6699 16.4536C88.6699 15.9956 88.5746 15.605 88.3857 15.2808L86.0537 17.9878ZM74.8691 12.6265C72.36 12.8618 70.4971 13.2057 69.2793 13.6577C68.0612 14.1103 67.4531 14.8066 67.4531 15.7466C67.4532 16.4518 67.7088 17.0128 68.2217 17.4282C68.734 17.844 69.43 18.0512 70.3086 18.0513C71.627 18.0513 72.7169 17.699 73.5781 16.9937C74.4381 16.2883 74.8682 15.1396 74.8682 13.5483L74.8691 12.6265ZM87.083 14.5327C86.621 14.5327 86.2408 14.7015 85.9424 15.0405C85.6439 15.3796 85.4951 15.8508 85.4951 16.4536C85.4952 16.9094 85.5856 17.2959 85.7646 17.6147L88.1006 14.9165C87.8204 14.661 87.4815 14.5327 87.083 14.5327ZM25.0752 6.93213C23.8846 6.93213 22.8731 7.27613 22.04 7.96338C21.2065 8.65067 20.735 9.68118 20.625 11.0552H29.332C29.2949 9.95261 28.8927 8.98966 28.124 8.1665C27.3551 7.3438 26.3383 6.93217 25.0752 6.93213Z" fill="#323434"/>
</svg>
